<?xml version="1.0" encoding="UTF-8" standalone="no"?>
<!-- Generator: Adobe Illustrator 16.0.4, SVG Export Plug-In . SVG Version: 6.00 Build 0)  -->

<svg
   xmlns:dc="http://purl.org/dc/elements/1.1/"
   xmlns:cc="http://creativecommons.org/ns#"
   xmlns:rdf="http://www.w3.org/1999/02/22-rdf-syntax-ns#"
   xmlns:svg="http://www.w3.org/2000/svg"
   xmlns="http://www.w3.org/2000/svg"
   xmlns:sodipodi="http://sodipodi.sourceforge.net/DTD/sodipodi-0.dtd"
   xmlns:inkscape="http://www.inkscape.org/namespaces/inkscape"
   version="1.1"
   id="Capa_1"
   x="0px"
   y="0px"
   width="216px"
   height="146px"
   viewBox="0 0 216 146"
   enable-background="new 0 0 216 146"
   xml:space="preserve"
   inkscape:version="0.48.5 r10040"
   sodipodi:docname="incomplete.svg"><metadata
     id="metadata9"><rdf:RDF><cc:Work
         rdf:about=""><dc:format>image/svg+xml</dc:format><dc:type
           rdf:resource="http://purl.org/dc/dcmitype/StillImage" /></cc:Work></rdf:RDF></metadata><defs
     id="defs7" /><sodipodi:namedview
     pagecolor="#ffffff"
     bordercolor="#666666"
     borderopacity="1"
     objecttolerance="10"
     gridtolerance="10"
     guidetolerance="10"
     inkscape:pageopacity="0"
     inkscape:pageshadow="2"
     inkscape:window-width="640"
     inkscape:window-height="480"
     id="namedview5"
     showgrid="false"
     inkscape:zoom="1.5185185"
     inkscape:cx="108"
     inkscape:cy="73"
     inkscape:window-x="0"
     inkscape:window-y="0"
     inkscape:window-maximized="0"
     inkscape:current-layer="Capa_1" /><path
     d="M168.452,42.121l-6.109-6.111c-2.118-2.009-4.59-3.014-7.413-3.014c-2.88,0-5.324,1.005-7.334,3.014L108,75.607  L68.404,36.011c-2.01-2.009-4.454-3.014-7.333-3.014c-2.824,0-5.296,1.005-7.414,3.014l-6.029,6.111  c-2.064,2.063-3.096,4.535-3.096,7.414c0,2.933,1.033,5.377,3.096,7.332l53.039,53.039c1.956,2.064,4.399,3.096,7.333,3.096  c2.879,0,5.35-1.032,7.413-3.096l53.039-53.039c2.01-2.01,3.016-4.454,3.016-7.332C171.468,46.711,170.462,44.24,168.452,42.121z"
     id="path3"
     style="fill:#ffffff" /></svg>