<?xml version="1.0" encoding="UTF-8" standalone="no"?>
<!-- Generator: Adobe Illustrator 16.0.4, SVG Export Plug-In . SVG Version: 6.00 Build 0)  -->

<svg
   xmlns:dc="http://purl.org/dc/elements/1.1/"
   xmlns:cc="http://creativecommons.org/ns#"
   xmlns:rdf="http://www.w3.org/1999/02/22-rdf-syntax-ns#"
   xmlns:svg="http://www.w3.org/2000/svg"
   xmlns="http://www.w3.org/2000/svg"
   xmlns:sodipodi="http://sodipodi.sourceforge.net/DTD/sodipodi-0.dtd"
   xmlns:inkscape="http://www.inkscape.org/namespaces/inkscape"
   version="1.1"
   id="Capa_1"
   x="0px"
   y="0px"
   width="216px"
   height="146px"
   viewBox="0 0 216 146"
   enable-background="new 0 0 216 146"
   xml:space="preserve"
   inkscape:version="0.48.5 r10040"
   sodipodi:docname="midground.svg"><metadata
     id="metadata13"><rdf:RDF><cc:Work
         rdf:about=""><dc:format>image/svg+xml</dc:format><dc:type
           rdf:resource="http://purl.org/dc/dcmitype/StillImage" /></cc:Work></rdf:RDF></metadata><defs
     id="defs11" /><sodipodi:namedview
     pagecolor="#ffffff"
     bordercolor="#666666"
     borderopacity="1"
     objecttolerance="10"
     gridtolerance="10"
     guidetolerance="10"
     inkscape:pageopacity="0"
     inkscape:pageshadow="2"
     inkscape:window-width="640"
     inkscape:window-height="480"
     id="namedview9"
     showgrid="false"
     inkscape:zoom="1.5185185"
     inkscape:cx="108"
     inkscape:cy="73"
     inkscape:window-x="0"
     inkscape:window-y="0"
     inkscape:window-maximized="0"
     inkscape:current-layer="Capa_1" /><g
     id="g3"
     style="fill:#ffffff"><path
       d="M158.473,22.527c-4.59-4.59-10.117-6.885-16.58-6.885H74.107c-6.463,0-11.99,2.295-16.58,6.885   c-4.589,4.59-6.884,10.116-6.884,16.58v67.786c0,6.463,2.295,11.989,6.884,16.58c4.59,4.59,10.117,6.885,16.58,6.885h67.786   c6.463,0,11.989-2.295,16.58-6.885c4.59-4.591,6.885-10.117,6.885-16.58V39.107C165.357,32.644,163.062,27.117,158.473,22.527z    M154.928,106.893c0,3.586-1.275,6.654-3.828,9.207s-5.621,3.829-9.207,3.829H74.107c-3.585,0-6.654-1.276-9.207-3.829   c-2.553-2.553-3.829-5.621-3.829-9.207V39.108c0-3.585,1.276-6.654,3.829-9.207c2.553-2.553,5.622-3.829,9.207-3.829h67.786   c3.586,0,6.654,1.276,9.207,3.829s3.828,5.622,3.828,9.207V106.893z"
       id="path5"
       style="fill:#ffffff" /><path
       d="M141.893,67.787H74.107c-0.76,0-1.385,0.244-1.874,0.732c-0.488,0.489-0.733,1.114-0.733,1.874v5.214   c0,0.761,0.244,1.386,0.733,1.875c0.489,0.487,1.114,0.731,1.874,0.731h67.786c0.76,0,1.385-0.244,1.875-0.731   c0.488-0.489,0.732-1.114,0.732-1.875v-5.214c0-0.76-0.244-1.385-0.732-1.874C143.277,68.031,142.652,67.787,141.893,67.787z"
       id="path7"
       style="fill:#ffffff" /></g></svg>