<?xml version="1.0" encoding="UTF-8" standalone="no"?>
<!-- Generator: Adobe Illustrator 16.0.0, SVG Export Plug-In . SVG Version: 6.00 Build 0)  -->

<svg
   xmlns:dc="http://purl.org/dc/elements/1.1/"
   xmlns:cc="http://creativecommons.org/ns#"
   xmlns:rdf="http://www.w3.org/1999/02/22-rdf-syntax-ns#"
   xmlns:svg="http://www.w3.org/2000/svg"
   xmlns="http://www.w3.org/2000/svg"
   xmlns:sodipodi="http://sodipodi.sourceforge.net/DTD/sodipodi-0.dtd"
   xmlns:inkscape="http://www.inkscape.org/namespaces/inkscape"
   version="1.1"
   id="Capa_1"
   x="0px"
   y="0px"
   width="438.533px"
   height="438.533px"
   viewBox="0 0 438.533 438.533"
   style="enable-background:new 0 0 438.533 438.533;"
   xml:space="preserve"
   inkscape:version="0.48.5 r10040"
   sodipodi:docname="chevron17.svg"><metadata
     id="metadata41"><rdf:RDF><cc:Work
         rdf:about=""><dc:format>image/svg+xml</dc:format><dc:type
           rdf:resource="http://purl.org/dc/dcmitype/StillImage" /><dc:title></dc:title></cc:Work></rdf:RDF></metadata><defs
     id="defs39" /><sodipodi:namedview
     pagecolor="#ffffff"
     bordercolor="#666666"
     borderopacity="1"
     objecttolerance="10"
     gridtolerance="10"
     guidetolerance="10"
     inkscape:pageopacity="0"
     inkscape:pageshadow="2"
     inkscape:window-width="1115"
     inkscape:window-height="703"
     id="namedview37"
     showgrid="false"
     inkscape:zoom="1.5221404"
     inkscape:cx="137.6622"
     inkscape:cy="186.21798"
     inkscape:window-x="0"
     inkscape:window-y="0"
     inkscape:window-maximized="0"
     inkscape:current-layer="Capa_1" /><g
     id="g7" /><g
     id="g9" /><g
     id="g11" /><g
     id="g13" /><g
     id="g15" /><g
     id="g17" /><g
     id="g19" /><g
     id="g21" /><g
     id="g23" /><g
     id="g25" /><g
     id="g27" /><g
     id="g29" /><g
     id="g31" /><g
     id="g33" /><g
     id="g35" /><path
     style="fill:#ffffff;stroke:none"
     d="M 176.49998,431.22156 C 132.09173,421.68798 96.305195,401.36157 63.178415,366.85594 37.608625,340.22184 21.649655,312.38391 9.9668154,274.03655 5.1500953,258.22632 4.9015853,255.51557 4.8657653,218.39463 c -0.0361,-37.38187 0.1779,-39.72449 5.0905201,-55.73551 C 25.321605,112.58111 58.676965,66.434329 99.225025,39.156765 134.62935,15.339497 168.06024,4.1852364 209.15142,2.4796744 273.60977,-0.19578365 326.16086,20.016372 370.79562,64.65113 c 32.235,32.235006 49.08414,60.70479 59.64716,100.78506 6.36988,24.1698 8.03738,66.0864 3.56949,89.72701 -15.14994,80.1616 -72.18407,145.07649 -149.72783,170.41662 -29.79064,9.73511 -77.1661,12.21489 -107.78446,5.64174 z m -0.9288,-182.16709 44.56782,-44.59685 44.62474,44.59685 44.62475,44.59688 10.76131,0 10.7613,0 18.45033,-18.45033 18.45033,-18.45031 -0.15516,-11.02589 -0.15516,-11.02587 -46.72316,-46.31867 C 250.39101,118.60247 228.77477,98.1703 226.69817,99.4537 c -1.03687,0.64083 -1.88523,0.2796 -1.88523,-0.80271 0,-3.068834 -7.83515,-2.290754 -13.31304,1.32207 -17.74017,11.70014 -138.056425,134.22178 -140.202495,142.77239 -2.26399,9.02044 8.63036,24.50117 29.415025,41.79835 10.01772,8.33682 11.76245,9.10755 20.61737,9.10755 l 9.67355,0 44.56783,-44.59688 0,0 z"
     id="path3024"
     inkscape:connector-curvature="0"
     inkscape:export-xdpi="90"
     inkscape:export-ydpi="90" /><path
     style="fill:#a0a0a0;stroke:none"
     d=""
     id="path3026"
     inkscape:connector-curvature="0" /></svg>